<svg width="50" height="50" viewBox="0 0 50 50" fill="none" xmlns="http://www.w3.org/2000/svg">
<path fill-rule="evenodd" clip-rule="evenodd" d="M33.9914 0H10C4.47716 0 0 4.47715 0 10V19.7574L7.117 26.8744L33.9914 0ZM0 28.2427L4.24263 32.4853C4.49597 32.7386 4.78333 32.9372 5.09001 33.0809C5.10036 33.0916 5.11079 33.1022 5.12132 33.1127C6.29289 34.2843 8.19238 34.2843 9.36395 33.1127L42.2276 0.249025C46.6782 1.26153 50 5.24285 50 10V21H28C26.3431 21 25 22.3431 25 24V50H10C4.47716 50 0 45.5228 0 40V28.2427ZM31 27H50V40C50 45.5228 45.5229 50 40 50H31V27Z" fill="#FF9E75"/>
</svg>
