<svg width="306" height="56" viewBox="0 0 306 56" fill="none" xmlns="http://www.w3.org/2000/svg">
<path d="M85 43.344C85.64 43.952 85.96 44.64 85.96 45.408C85.96 46.144 85.688 46.8 85.144 47.376C84.632 47.952 84.024 48.24 83.32 48.24C82.616 48.24 81.96 47.952 81.352 47.376L70.12 37.2V45.408C70.12 46.336 69.832 47.04 69.256 47.52C68.68 48 67.96 48.24 67.096 48.24C66.232 48.24 65.512 48 64.936 47.52C64.392 47.04 64.12 46.336 64.12 45.408V16.752C64.12 15.824 64.392 15.12 64.936 14.64C65.512 14.16 66.232 13.92 67.096 13.92C67.96 13.92 68.68 14.16 69.256 14.64C69.832 15.12 70.12 15.824 70.12 16.752V34.8L80.392 24.96C80.968 24.384 81.624 24.096 82.36 24.096C83.096 24.096 83.736 24.368 84.28 24.912C84.824 25.456 85.096 26.096 85.096 26.832C85.096 27.568 84.792 28.24 84.184 28.848L76.648 35.856L85 43.344ZM99.9366 23.952C103.201 23.952 105.617 24.768 107.185 26.4C108.785 28 109.585 30.448 109.585 33.744V45.456C109.585 46.32 109.329 47.008 108.817 47.52C108.305 48 107.601 48.24 106.705 48.24C105.873 48.24 105.185 47.984 104.641 47.472C104.129 46.96 103.873 46.288 103.873 45.456V44.4C103.329 45.648 102.465 46.624 101.281 47.328C100.129 48.032 98.7846 48.384 97.2486 48.384C95.6806 48.384 94.2566 48.064 92.9766 47.424C91.6966 46.784 90.6886 45.904 89.9526 44.784C89.2166 43.664 88.8486 42.416 88.8486 41.04C88.8486 39.312 89.2806 37.952 90.1446 36.96C91.0406 35.968 92.4806 35.248 94.4646 34.8C96.4486 34.352 99.1846 34.128 102.673 34.128H103.873V33.024C103.873 31.456 103.537 30.32 102.865 29.616C102.193 28.88 101.105 28.512 99.6006 28.512C98.6726 28.512 97.7286 28.656 96.7686 28.944C95.8086 29.2 94.6726 29.584 93.3606 30.096C92.5286 30.512 91.9206 30.72 91.5366 30.72C90.9606 30.72 90.4806 30.512 90.0966 30.096C89.7446 29.68 89.5686 29.136 89.5686 28.464C89.5686 27.92 89.6966 27.456 89.9526 27.072C90.2406 26.656 90.7046 26.272 91.3446 25.92C92.4646 25.312 93.7926 24.832 95.3286 24.48C96.8966 24.128 98.4326 23.952 99.9366 23.952ZM98.4486 44.064C100.049 44.064 101.345 43.536 102.337 42.48C103.361 41.392 103.873 40 103.873 38.304V37.296H103.009C100.865 37.296 99.2006 37.392 98.0166 37.584C96.8326 37.776 95.9846 38.112 95.4726 38.592C94.9606 39.072 94.7046 39.728 94.7046 40.56C94.7046 41.584 95.0566 42.432 95.7606 43.104C96.4966 43.744 97.3926 44.064 98.4486 44.064ZM129.315 23.952C132.131 23.952 134.227 24.752 135.603 26.352C136.979 27.952 137.667 30.368 137.667 33.6V45.408C137.667 46.304 137.395 47.008 136.851 47.52C136.339 48.032 135.619 48.288 134.691 48.288C133.763 48.288 133.027 48.032 132.483 47.52C131.939 47.008 131.667 46.304 131.667 45.408V33.936C131.667 32.112 131.315 30.784 130.611 29.952C129.939 29.12 128.867 28.704 127.395 28.704C125.667 28.704 124.275 29.248 123.219 30.336C122.195 31.424 121.683 32.88 121.683 34.704V45.408C121.683 46.304 121.411 47.008 120.867 47.52C120.323 48.032 119.587 48.288 118.659 48.288C117.731 48.288 116.995 48.032 116.451 47.52C115.939 47.008 115.683 46.304 115.683 45.408V26.832C115.683 26 115.955 25.328 116.499 24.816C117.043 24.304 117.779 24.048 118.707 24.048C119.539 24.048 120.211 24.304 120.723 24.816C121.267 25.296 121.539 25.936 121.539 26.736V28.032C122.339 26.72 123.411 25.712 124.755 25.008C126.099 24.304 127.619 23.952 129.315 23.952ZM157.249 23.952C159.297 23.952 161.105 24.448 162.673 25.44C164.241 26.432 165.457 27.84 166.321 29.664C167.217 31.488 167.665 33.616 167.665 36.048C167.665 38.48 167.217 40.64 166.321 42.528C165.457 44.384 164.225 45.824 162.625 46.848C161.057 47.872 159.265 48.384 157.249 48.384C155.553 48.384 154.033 48.016 152.689 47.28C151.377 46.544 150.369 45.52 149.665 44.208V45.408C149.665 46.272 149.393 46.96 148.849 47.472C148.305 47.984 147.585 48.24 146.689 48.24C145.793 48.24 145.073 47.984 144.529 47.472C144.017 46.96 143.761 46.272 143.761 45.408V16.704C143.761 15.872 144.033 15.2 144.577 14.688C145.153 14.176 145.889 13.92 146.785 13.92C147.681 13.92 148.401 14.16 148.945 14.64C149.489 15.12 149.761 15.776 149.761 16.608V27.936C150.465 26.656 151.473 25.68 152.785 25.008C154.097 24.304 155.585 23.952 157.249 23.952ZM155.665 43.728C157.553 43.728 159.025 43.056 160.081 41.712C161.137 40.368 161.665 38.48 161.665 36.048C161.665 33.648 161.137 31.808 160.081 30.528C159.057 29.248 157.585 28.608 155.665 28.608C153.745 28.608 152.257 29.264 151.201 30.576C150.177 31.856 149.665 33.712 149.665 36.144C149.665 38.576 150.177 40.448 151.201 41.76C152.257 43.072 153.745 43.728 155.665 43.728ZM182.765 23.952C186.029 23.952 188.445 24.768 190.013 26.4C191.613 28 192.413 30.448 192.413 33.744V45.456C192.413 46.32 192.157 47.008 191.645 47.52C191.133 48 190.429 48.24 189.533 48.24C188.701 48.24 188.013 47.984 187.469 47.472C186.957 46.96 186.701 46.288 186.701 45.456V44.4C186.157 45.648 185.293 46.624 184.109 47.328C182.957 48.032 181.613 48.384 180.077 48.384C178.509 48.384 177.085 48.064 175.805 47.424C174.525 46.784 173.517 45.904 172.781 44.784C172.045 43.664 171.677 42.416 171.677 41.04C171.677 39.312 172.109 37.952 172.973 36.96C173.869 35.968 175.309 35.248 177.293 34.8C179.277 34.352 182.013 34.128 185.501 34.128H186.701V33.024C186.701 31.456 186.365 30.32 185.693 29.616C185.021 28.88 183.933 28.512 182.429 28.512C181.501 28.512 180.557 28.656 179.597 28.944C178.637 29.2 177.501 29.584 176.189 30.096C175.357 30.512 174.749 30.72 174.365 30.72C173.789 30.72 173.309 30.512 172.925 30.096C172.573 29.68 172.397 29.136 172.397 28.464C172.397 27.92 172.525 27.456 172.781 27.072C173.069 26.656 173.533 26.272 174.173 25.92C175.293 25.312 176.621 24.832 178.157 24.48C179.725 24.128 181.261 23.952 182.765 23.952ZM181.277 44.064C182.877 44.064 184.173 43.536 185.165 42.48C186.189 41.392 186.701 40 186.701 38.304V37.296H185.837C183.693 37.296 182.029 37.392 180.845 37.584C179.661 37.776 178.813 38.112 178.301 38.592C177.789 39.072 177.533 39.728 177.533 40.56C177.533 41.584 177.885 42.432 178.589 43.104C179.325 43.744 180.221 44.064 181.277 44.064ZM212.143 23.952C214.959 23.952 217.055 24.752 218.431 26.352C219.807 27.952 220.495 30.368 220.495 33.6V45.408C220.495 46.304 220.223 47.008 219.679 47.52C219.167 48.032 218.447 48.288 217.519 48.288C216.591 48.288 215.855 48.032 215.311 47.52C214.767 47.008 214.495 46.304 214.495 45.408V33.936C214.495 32.112 214.143 30.784 213.439 29.952C212.767 29.12 211.695 28.704 210.223 28.704C208.495 28.704 207.103 29.248 206.047 30.336C205.023 31.424 204.511 32.88 204.511 34.704V45.408C204.511 46.304 204.239 47.008 203.695 47.52C203.151 48.032 202.415 48.288 201.487 48.288C200.559 48.288 199.823 48.032 199.279 47.52C198.767 47.008 198.511 46.304 198.511 45.408V26.832C198.511 26 198.783 25.328 199.327 24.816C199.871 24.304 200.607 24.048 201.535 24.048C202.367 24.048 203.039 24.304 203.551 24.816C204.095 25.296 204.367 25.936 204.367 26.736V28.032C205.167 26.72 206.239 25.712 207.583 25.008C208.927 24.304 210.447 23.952 212.143 23.952ZM229.565 48.288C228.701 48.288 227.981 48.048 227.405 47.568C226.861 47.056 226.589 46.336 226.589 45.408V26.88C226.589 25.952 226.861 25.248 227.405 24.768C227.981 24.288 228.701 24.048 229.565 24.048C230.429 24.048 231.149 24.288 231.725 24.768C232.301 25.248 232.589 25.952 232.589 26.88V45.408C232.589 46.336 232.301 47.056 231.725 47.568C231.149 48.048 230.429 48.288 229.565 48.288ZM229.565 19.776C228.477 19.776 227.613 19.488 226.973 18.912C226.333 18.304 226.013 17.52 226.013 16.56C226.013 15.6 226.333 14.832 226.973 14.256C227.613 13.68 228.477 13.392 229.565 13.392C230.621 13.392 231.469 13.68 232.109 14.256C232.781 14.832 233.117 15.6 233.117 16.56C233.117 17.52 232.797 18.304 232.157 18.912C231.517 19.488 230.653 19.776 229.565 19.776ZM257.304 24.048C258.232 24.048 258.968 24.304 259.512 24.816C260.056 25.328 260.328 26.016 260.328 26.88V45.504C260.328 46.336 260.04 47.008 259.464 47.52C258.92 48.032 258.2 48.288 257.304 48.288C256.44 48.288 255.752 48.048 255.24 47.568C254.728 47.088 254.472 46.432 254.472 45.6V44.4C253.736 45.68 252.744 46.672 251.496 47.376C250.248 48.048 248.84 48.384 247.272 48.384C241.512 48.384 238.632 45.152 238.632 38.688V26.88C238.632 26.016 238.904 25.328 239.448 24.816C239.992 24.304 240.712 24.048 241.608 24.048C242.536 24.048 243.272 24.304 243.816 24.816C244.36 25.328 244.632 26.016 244.632 26.88V38.736C244.632 40.4 244.968 41.632 245.64 42.432C246.312 43.232 247.368 43.632 248.808 43.632C250.472 43.632 251.8 43.088 252.792 42C253.816 40.88 254.328 39.408 254.328 37.584V26.88C254.328 26.016 254.6 25.328 255.144 24.816C255.688 24.304 256.408 24.048 257.304 24.048ZM294.461 23.952C297.021 23.952 298.973 24.72 300.317 26.256C301.693 27.76 302.381 30.208 302.381 33.6V45.408C302.381 46.336 302.093 47.056 301.517 47.568C300.973 48.048 300.253 48.288 299.357 48.288C298.493 48.288 297.773 48.048 297.197 47.568C296.653 47.056 296.381 46.336 296.381 45.408V33.6C296.381 31.84 296.061 30.592 295.421 29.856C294.813 29.088 293.869 28.704 292.589 28.704C291.021 28.704 289.773 29.248 288.845 30.336C287.917 31.392 287.453 32.848 287.453 34.704V45.408C287.453 46.336 287.165 47.056 286.589 47.568C286.045 48.048 285.341 48.288 284.477 48.288C283.613 48.288 282.893 48.048 282.317 47.568C281.741 47.056 281.453 46.336 281.453 45.408V33.6C281.453 31.84 281.133 30.592 280.493 29.856C279.885 29.088 278.941 28.704 277.661 28.704C276.093 28.704 274.845 29.248 273.917 30.336C273.021 31.392 272.573 32.848 272.573 34.704V45.408C272.573 46.336 272.285 47.056 271.709 47.568C271.133 48.048 270.413 48.288 269.549 48.288C268.685 48.288 267.965 48.048 267.389 47.568C266.845 47.056 266.573 46.336 266.573 45.408V26.832C266.573 25.936 266.861 25.248 267.437 24.768C268.013 24.288 268.733 24.048 269.597 24.048C270.429 24.048 271.101 24.288 271.613 24.768C272.157 25.216 272.429 25.872 272.429 26.736V27.888C273.165 26.608 274.141 25.632 275.357 24.96C276.605 24.288 278.029 23.952 279.629 23.952C283.149 23.952 285.501 25.424 286.685 28.368C287.389 27.024 288.429 25.952 289.805 25.152C291.181 24.352 292.733 23.952 294.461 23.952Z" fill="white"/>
<path fill-rule="evenodd" clip-rule="evenodd" d="M33.9914 6H10C4.47715 6 0 10.4772 0 16V25.7574L7.11701 32.8744L33.9914 6ZM0 34.2426L4.24263 38.4853C4.49597 38.7386 4.78333 38.9372 5.09002 39.0809C5.10036 39.0916 5.11079 39.1022 5.12132 39.1127C6.29289 40.2843 8.19239 40.2843 9.36396 39.1127L42.2276 6.24903C46.6782 7.26153 50 11.2428 50 16V27H28C26.3431 27 25 28.3431 25 30V56H10C4.47715 56 0 51.5228 0 46V34.2426ZM31 33H50V46C50 51.5228 45.5228 56 40 56H31L31 33Z" fill="white"/>
</svg>
