<?xml version="1.0" encoding="utf-8"?>
<!-- Generator: Adobe Illustrator 23.0.4, SVG Export Plug-In . SVG Version: 6.00 Build 0)  -->
<svg version="1.1" xmlns="http://www.w3.org/2000/svg" xmlns:xlink="http://www.w3.org/1999/xlink" x="0px" y="0px"
	 viewBox="0 0 1000 1000" style="enable-background:new 0 0 1000 1000;" xml:space="preserve">
<style type="text/css">
	.st0{fill:#89A7A8;}
	.st1{fill:#FFFFFF;}
	.st2{fill:#F37E75;}
	.st3{fill:#9FC8E1;}
	.st4{fill:#DEDDDD;}
	.st5{fill:#90888A;}
	.st6{fill:#E5C66D;}
	.st7{fill:#FAC0AF;}
	.st8{fill:#59574D;}
	.st9{fill:#727C93;}
	.st10{fill:#F8D586;}
	.st11{fill:#67656C;}
	.st12{fill:#91796C;}
	.st13{fill:#A1D2F0;}
	.st14{fill:#F9F9F9;}
	.st15{fill:#D4A178;}
	.st16{fill:#424238;}
</style>
<g id="Layer_5">
	<rect x="-98.66" y="-29.56" class="st0" width="1236.77" height="1076.06"/>
</g>
<g id="Layer_3">
	<g>
		<g>
			<path class="st1" d="M134.04,189.74c0,0,59.71,255.85,62.54,261.53c2.83,5.67,197.36-60,197.36-60l-96.59-264.31L134.04,189.74z"
				/>
		</g>
		<g>
			<polyline class="st2" points="169.71,392.43 185.72,438.44 199.17,427.94 184.44,378.44 169.71,392.43 			"/>
		</g>
		<g>
			<path class="st3" d="M190.68,374.18c0,1.5,17,53,17,53l15.5-10.5l-16.25-45.57L190.68,374.18z"/>
		</g>
		<g>
			<path class="st4" d="M470.09,415.94l-5.05-121.43c0,0-59,10.96-61.19,9.97c-2.19-0.99,0.67,116.07,0.67,116.07L470.09,415.94z"/>
		</g>
		<g>
			<polygon class="st5" points="458.99,406.66 454.44,319.87 412.21,326.75 410.35,410.13 			"/>
		</g>
		<g>
			<polygon class="st5" points="437.9,314.46 436.65,306.78 423.89,312.8 424.52,316.64 			"/>
		</g>
		<g>
			<g>
				<polygon class="st6" points="589.02,299.04 579.56,283.49 488.4,344.89 501.65,360.75 				"/>
			</g>
			<g>
				<polygon class="st7" points="501.65,360.75 471.78,366.6 488.4,344.89 				"/>
			</g>
			<g>
				<polygon class="st8" points="480.6,364.87 476.69,360.18 471.78,366.6 				"/>
			</g>
			<g>
				<polygon class="st8" points="497.8,356.15 586.42,294.77 583.31,291.04 493.07,350.48 				"/>
			</g>
			<g>
				<polygon class="st2" points="589.02,299.04 594.58,287.95 590.64,280.1 579.56,283.49 				"/>
			</g>
		</g>
		<g>
			<polygon class="st7" points="512.94,172.11 519.17,234.71 496.73,286.21 504,292.88 524.37,270.21 510.55,338.88 524.37,342.21 
				536.94,284.21 546.28,326.88 534.94,338.88 546.28,348.21 561.61,331.54 550.94,282.21 570.94,321.21 570.94,336.21 
				582.28,331.54 582.28,314.76 566.28,276.88 582.28,292.88 589.61,283.54 570.94,267.54 557.61,234.71 556.94,168.88 			"/>
		</g>
		<g>
			<path class="st7" d="M387.94,182.61v101.6l25.51,64l13.49-6.45l-19.5-44.55l6.01,2l21.49,49l15.63-6.45l-23.63-47.55l8,1l24,53
				l17-13l-30.64-50l5.27,3l25.37,30l11.01-7l-36.38-45.8l30.37,13.8l6.01-19l-36.38-19l-13.12-66
				C437.45,175.21,374.94,185.01,387.94,182.61z"/>
		</g>
		<g>
			<g>
				<g>
					<polygon class="st4" points="327.39,697.33 327.39,863.33 603.39,881.33 621.39,719.33 					"/>
				</g>
				<g>
					<polygon class="st5" points="358.98,732.42 358.98,823.92 586.98,843.42 594.39,742.33 					"/>
				</g>
				<g>
					<polygon class="st5" points="440.39,838.33 440.39,858.33 481.39,858.33 488.39,843.42 445.39,838.33 					"/>
				</g>
				<g>
					<polygon class="st4" points="327.39,697.33 306.49,597.59 669.47,628.93 621.39,719.33 					"/>
				</g>
				<g>
					<polygon class="st1" points="334.39,620.33 344.39,687.33 601.39,712.33 631.39,649.33 					"/>
				</g>
			</g>
			<g>
				<polygon class="st7" points="387.7,854.72 380.56,843.12 336.61,853.95 375.77,833.87 361.71,819.81 323.56,841.9 
					349.66,809.77 333.6,800.28 312.43,832.89 316.68,817.02 309.04,813 307.34,819.66 297.46,855.95 333.6,962.37 376.09,945.75 
					352,898.45 387.7,895.77 387.7,881.33 353.78,869 				"/>
			</g>
			<g>
				<polygon class="st7" points="555.53,945.33 542.53,884.24 525.86,838.33 539.53,833.33 544.86,845.99 550.2,800.28 
					566.2,800.28 566.2,843.42 576.2,796.66 590.14,800.28 582.2,843.42 600.86,810.66 610.59,816.56 600.2,848.33 615.53,838.33 
					619.2,841.49 605.2,855.16 599.53,941.99 				"/>
			</g>
			<g>
				<polygon class="st9" points="290.36,927.49 365.2,898.83 447.7,1150.16 373.03,1156.83 290.36,927.49 				"/>
			</g>
			<g>
				<polygon class="st9" points="544.28,1134.4 532.28,925.91 631.39,919.91 643.27,1140.4 				"/>
			</g>
		</g>
		<g>
			<g>
				<polygon class="st6" points="660.32,833.16 678.32,835.88 689.66,726.54 668.99,726.54 				"/>
			</g>
			<g>
				<polygon class="st7" points="668.99,726.54 683.66,699.88 689.66,726.54 				"/>
			</g>
			<g>
				<polygon class="st8" points="679.32,707.76 685.43,707.76 683.66,699.88 				"/>
			</g>
			<g>
				<polygon class="st8" points="674.99,726.54 665.27,833.91 670.13,833.91 682.38,726.54 				"/>
			</g>
			<g>
				<polygon class="st2" points="660.32,833.16 665.27,844.54 673.82,846.54 678.32,835.88 				"/>
			</g>
		</g>
		<g>
			<g>
				<g>
					<polygon class="st2" points="81.27,590.23 207.27,572.21 244.77,751.23 118.77,803.19 					"/>
				</g>
				<g>
					<polygon class="st1" points="125.5,632.95 128.84,652.95 198.84,632.95 194.17,620.95 					"/>
				</g>
				<g>
					<polygon class="st8" points="64.17,612.12 67.5,618.28 91.5,612.23 88.84,602.16 					"/>
				</g>
				<g>
					<polygon class="st8" points="72.17,629.61 72.17,639.61 96.17,634.61 96.17,625.33 					"/>
				</g>
				<g>
					<polygon class="st8" points="77.84,656.95 77.84,668.28 104.17,662.61 100.84,652.95 					"/>
				</g>
				<g>
					<polygon class="st8" points="81.27,687.7 84.17,698.28 108.84,689.56 108.84,680.82 					"/>
				</g>
				<g>
					<polygon class="st8" points="87.5,718.28 87.5,727.56 116.17,718.28 116.17,710.95 					"/>
				</g>
				<g>
					<polygon class="st8" points="91,747.61 95.06,759.61 122.17,751.23 116.17,740.95 					"/>
				</g>
				<g>
					<polygon class="st8" points="96.17,779.61 101.84,791.73 125.5,779.61 122.17,770.95 					"/>
				</g>
			</g>
			<g>
				<path class="st8" d="M154.26,745.98c0,0-2.56,5.42,0,5.42c2.56,0,28.82-8.33,28.82-8.33v-4.48L154.26,745.98z"/>
			</g>
			<g>
				<polygon class="st8" points="157.47,765.49 159.51,773.81 189.49,769.65 189.49,757.81 				"/>
			</g>
			<g>
				<polygon class="st8" points="168.11,789.83 168.14,798.16 194.19,789.83 194.19,780.37 				"/>
			</g>
			<g>
				<polygon class="st8" points="173.48,810.91 173.48,819.93 202.94,805.99 199.74,801.81 				"/>
			</g>
			<g>
				<polygon class="st8" points="181.15,835.45 181.15,844.27 210.63,829.54 207.42,819.93 				"/>
			</g>
			<g>
				<polygon class="st8" points="188.21,857.87 188.21,869.89 219.59,851.32 215.11,844.27 				"/>
			</g>
			<g>
				<polygon class="st10" points="39.19,740.73 158.75,731.64 199.74,884.88 81.46,890.17 				"/>
			</g>
			<g>
				<polygon class="st10" points="168.14,728.3 209.13,878.66 294.53,828.28 252.68,695.58 				"/>
			</g>
			<g>
				<polygon class="st1" points="168.11,734.03 202.94,869.89 207.69,873.37 285.56,826.34 247.77,708.49 				"/>
			</g>
			<g>
				<polygon class="st1" points="51.58,751.4 88.3,878.66 195.89,878.66 196.66,873.37 160.61,738.59 				"/>
			</g>
			<g>
				
					<rect x="177.13" y="734.21" transform="matrix(0.9556 -0.2947 0.2947 0.9556 -207.6074 94.6639)" class="st11" width="66.35" height="4"/>
			</g>
			<g>
				
					<rect x="188.77" y="749.4" transform="matrix(0.9751 -0.2217 0.2217 0.9751 -161.1549 66.9485)" class="st11" width="57.8" height="4"/>
			</g>
			<g>
				
					<rect x="192.34" y="768.44" transform="matrix(0.9334 -0.3588 0.3588 0.9334 -261.7835 130.2437)" class="st11" width="55.35" height="4"/>
			</g>
			<g>
				
					<rect x="194.44" y="783.98" transform="matrix(0.9357 -0.3528 0.3528 0.9357 -262.5931 131.3243)" class="st11" width="69" height="4"/>
			</g>
			<g>
				
					<rect x="204.94" y="805.52" transform="matrix(0.923 -0.3848 0.3848 0.923 -292.4893 153.4729)" class="st11" width="64.53" height="4"/>
			</g>
			<g>
				
					<rect x="206.06" y="825.59" transform="matrix(0.8605 -0.5094 0.5094 0.8605 -388.2579 237.062)" class="st11" width="65.5" height="4"/>
			</g>
			<g>
				
					<rect x="136.56" y="826.01" transform="matrix(0.0301 -0.9995 0.9995 0.0301 -733.8193 980.9877)" class="st11" width="4" height="85.2"/>
			</g>
			<g>
				
					<rect x="134.86" y="812.78" transform="matrix(0.0175 -0.9998 0.9998 0.0175 -714.7945 971.3809)" class="st11" width="4" height="73.24"/>
			</g>
			<g>
				<rect x="88.3" y="825.59" class="st11" width="79.84" height="4"/>
			</g>
			<g>
				
					<rect x="90.84" y="807.77" transform="matrix(0.9995 -0.031 0.031 0.9995 -25.0419 4.3475)" class="st11" width="73.69" height="4"/>
			</g>
			<g>
				
					<rect x="81.06" y="785.66" transform="matrix(0.989 -0.1482 0.1482 0.989 -115.441 26.0825)" class="st11" width="72.46" height="4"/>
			</g>
			<g>
				
					<rect x="80.81" y="765.16" transform="matrix(0.9807 -0.1953 0.1953 0.9807 -147.602 37.206)" class="st11" width="68.16" height="4"/>
			</g>
			<g>
				
					<rect x="72.22" y="751.24" transform="matrix(0.9814 -0.1919 0.1919 0.9814 -142.4965 35.1206)" class="st11" width="75.7" height="4"/>
			</g>
		</g>
		<g>
			<g>
				<polygon class="st1" points="298.53,520.62 230.72,513.18 227.22,531.75 202.94,523.68 202.94,540.44 224.57,545.75 
					219.22,574.13 253.05,604.88 303.49,574.13 				"/>
			</g>
			<g>
				<polygon class="st12" points="242.01,526.71 233.44,562.21 250.94,582.21 278.44,566.21 294.53,556.71 291.94,531.71 				"/>
			</g>
		</g>
		<g>
			<path class="st4" d="M739.48,757.88l-14.54,120.67c0,0,60-1.33,62,0c2,1.33,18-114.67,18-114.67L739.48,757.88z"/>
		</g>
		<g>
			<polygon class="st5" points="748.95,768.82 739.48,855.21 782.28,855.21 797.51,773.21 			"/>
		</g>
		<g>
			<polygon class="st5" points="754.94,863.21 754.94,870.99 768.5,867.1 768.5,863.21 			"/>
		</g>
		<g>
			<polygon class="st11" points="515.92,699.77 482.41,660.96 425.24,690.31 396.51,645.41 353.76,682.72 351.13,679.7 
				397.38,639.34 426.65,685.09 483.38,655.96 516.99,694.88 586.61,663.01 588.28,666.64 			"/>
		</g>
		<g>
			<polygon class="st7" points="925.67,248.69 873.67,268.14 808.67,348.14 878.09,384.14 906.67,326.14 912.89,384.14 
				932.67,375.14 923.67,326.14 942.73,299.14 			"/>
		</g>
		<g>
			<polygon class="st7" points="815.57,624.65 738.78,557.96 720.41,474.04 741.41,473.95 761.2,539.87 759.46,484.38 
				805.98,490.17 833.24,549.06 861.87,579.93 			"/>
		</g>
		<g>
			<path class="st12" d="M1016.23,804.25c-6-6.53-227.99-166.4-227.99-166.4l57-90.62l164.99,128.51L1016.23,804.25z"/>
		</g>
		<g>
			<polygon class="st1" points="639.52,472.36 942.73,571.76 942.73,368.67 660.83,289.29 			"/>
		</g>
		<g>
			<polygon class="st7" points="730.15,517.64 723.17,485.64 748.67,490.14 756.19,522.63 			"/>
		</g>
		<g>
			
				<rect x="623.64" y="392.14" transform="matrix(0.124 -0.9923 0.9923 0.124 215.217 1032.0751)" class="st11" width="137.06" height="4"/>
		</g>
		<g>
			
				<rect x="664.23" y="406.44" transform="matrix(0.1435 -0.9896 0.9896 0.1435 221.1886 1072.4618)" class="st11" width="131.96" height="4"/>
		</g>
		<g>
			
				<rect x="708.64" y="415.64" transform="matrix(0.1311 -0.9914 0.9914 0.1311 254.7137 1125.9016)" class="st11" width="122.05" height="4"/>
		</g>
		<g>
			
				<rect x="743.31" y="431.64" transform="matrix(0.1104 -0.9939 0.9939 0.1104 282.6373 1183.0435)" class="st11" width="117.72" height="4"/>
		</g>
		<g>
			
				<rect x="781.37" y="442.14" transform="matrix(0.0996 -0.995 0.995 0.0996 315.9157 1237.3909)" class="st11" width="120.6" height="4"/>
		</g>
		<g>
			<path class="st11" d="M912.8,428.18c-0.64-3.54-5.78-7.11-8.14-9.26c-0.23-0.21-0.48-0.41-0.72-0.62
				c0.19-1.29-0.22-2.48-0.83-3.85c-2.46-5.52-1.23-11.27,4.06-14.44c1.1-0.66,0.1-2.39-1.01-1.73c-3.1,1.86-6.7,5.31-6.39,9.18
				c0.13,1.65,0.26,6.13,1.03,7.19c0.26,0.36,0.55,1.12,0.65,1.7c-0.76-0.53-1.54-1.02-2.35-1.47c-0.67-0.98-1.28-2.03-1.9-3
				c-3.39-5.27-12.63-11.1-17.11-4.15c-4.61,7.15,6.63,16.46,12.33,20.01c0.17,0.65,0.26,1.31,0.17,1.94
				c-0.31,2.22-1.57,3.35-1.86,5.33c-0.06-0.03-0.12-0.07-0.18-0.11c-3.91-2.06-8.82-1.73-11.5,1.96
				c-3.1,4.28,2.25,11.11,2.62,15.27c0.11,1.27,2.11,1.29,2,0c-0.32-3.61-2.6-6.48-3-10c-0.9-7.89,5.1-6.92,10.02-4.57
				c0.11,5.05,0.72,9.74,2.07,14.74c0.75,2.78,2.53,7.93,5.98,8.43c3.83,0.55,8.09-1.44,11.06-3.82c3.28-2.63,0.54-5.54-1.75-7.78
				c-4.64-4.52-9.61-9.44-15.2-12.91c0.2-1.33,0.5-2.59,0.93-3.72c0.5-1.33,0.67-2.54,0.62-3.69
				C899.07,430.91,914.17,435.74,912.8,428.18z M894.94,440.08c4.12,3.02,7.95,6.98,11.69,10.47c4.65,4.33-6.49,12.63-10.71,4.6
				c-2.32-4.4-3.64-10.9-3.31-16.57C893.48,439.08,894.28,439.6,894.94,440.08z M883.76,417.16c-1.58-2.18-2.7-4.74-2.27-7.51
				c0.84-5.43,6.68-2.7,9-1.44c1.9,1.03,3.31,2.96,4.67,4.97c-1.08-0.33-2.19-0.58-3.34-0.71c-6.39-0.72-1.56,9.8-0.56,12.22
				C888.34,422.66,885.84,420.03,883.76,417.16z M893.97,426.33c-0.49-1.74-1.32-3.47-2.09-5.44c-0.83-2.13-2.95-7.15,1.42-6.14
				c1.39,0.32,2.68,0.82,3.91,1.43c1.42,1.93,3,3.52,5.19,3.93c0.17,0.03,0.36,0.02,0.53-0.02c0.94,0.8,1.85,1.65,2.75,2.51
				c2.14,2.03,8.5,7.23,1.98,7.54C902.92,430.37,898.11,428.56,893.97,426.33z"/>
		</g>
		<g>
			<polygon class="st12" points="912.89,233.75 935.23,319.24 1148.22,254.75 1110.67,178.14 			"/>
		</g>
		<g>
			<polygon class="st2" points="577.44,658.46 564.94,707.76 575.44,703.82 587.44,658.46 			"/>
		</g>
		<g>
			<polygon class="st6" points="551.61,677.21 545.61,703.82 551.61,703.82 560.39,669.85 			"/>
		</g>
		<g>
			<polygon class="st13" points="532.94,683.11 516.45,686.83 513.91,703.82 523.43,703.82 			"/>
		</g>
		<g>
			<polygon class="st2" points="476.69,649.71 469.94,695.58 482.89,695.58 488.39,652.95 			"/>
		</g>
		<g>
			<polygon class="st6" points="423.44,674.71 423.44,691.71 431.94,693.46 431.94,674.71 			"/>
		</g>
		<g>
			<polygon class="st13" points="389.44,640.3 387.7,687.7 397.44,687.7 402.44,634.71 			"/>
		</g>
		<g>
			<polygon class="st13" points="448.94,666.33 446.44,693.46 453.94,693.46 457.94,661.21 			"/>
		</g>
		<g>
			<polygon class="st2" points="409.44,652.95 404.94,684.09 412.94,686.83 412.94,655.21 			"/>
		</g>
		<g>
			<path class="st2" d="M365.44,655.71v27.4c0,0,6.5,4.9,6.5,0c0-4.9,0-33.4,0-33.4L365.44,655.71z"/>
		</g>
		<g>
			<path class="st6" d="M348.94,669.85c0,0,3.5,15.16,3.5,13.26c0-1.9,7.08,2.4,6.54,0c-0.54-2.4-2.04-16.78-2.04-16.78
				L348.94,669.85z"/>
		</g>
		<g>
			<polygon class="st6" points="499.94,661.21 491.44,695.58 499.94,695.58 508.44,664.83 			"/>
		</g>
		<g>
			<polygon class="st14" points="339.95,-34.79 378,203.21 452.95,211.21 486.95,-54.79 			"/>
		</g>
		<g>
			<path class="st14" d="M526.47-54.79l-22.47,266c0,0,58.4-2,68.95,0s80.55-266,80.55-266H526.47z"/>
		</g>
		<g>
			<path class="st6" d="M521.49,186.82c0,0-3.16,8.43-2.11,8.78s5.27,3.51,5.27,3.51l4.92-8.43L521.49,186.82z"/>
		</g>
		<g>
			<polygon class="st6" points="440.04,188.93 448.47,182.61 450.57,192.97 445.31,199.11 440.04,201.22 			"/>
		</g>
		<g>
			<polygon class="st15" points="87.93,164.71 159.45,433.64 347.41,337.71 287.11,102.71 			"/>
		</g>
		<g>
			<polygon class="st1" points="169.71,322.12 176.94,351.21 300.28,303.21 288.28,261.71 166.28,306.78 			"/>
		</g>
		<g>
			
				<rect x="181.27" y="299.68" transform="matrix(0.9409 -0.3386 0.3386 0.9409 -88.2722 97.3997)" class="st11" width="107.46" height="4"/>
		</g>
		<g>
			<path class="st16" d="M327.94-34.79l35,203.67h108.83c0,0,36.28-245.67,32.22-244.67C499.94-74.79,327.94-34.79,327.94-34.79z"/>
		</g>
		<g>
			<polygon class="st16" points="519.17,-62.79 501.65,163.21 601.94,175.21 669.47,-62.79 			"/>
		</g>
		<g>
			<g>
				<path class="st4" d="M678.85,240.96c3.08,1.87,86.55,39.45,86.55,39.45l40.56-74.97l-83.78-47.58l-45.36,87.99"/>
			</g>
			<g>
				<polygon class="st5" points="714.38,247.34 727.17,252.67 733.34,244.95 718.64,237.1 				"/>
			</g>
			<g>
				<polygon class="st5" points="725.65,225.44 738.37,232.88 743.64,220.24 730.98,212.65 				"/>
			</g>
			<g>
				<path class="st5" d="M737.6,202.96c0,0,10.45,8.65,10.37,6.9c-0.08-1.75,5.51-13.15,5.51-13.15l-10.09-7.64L737.6,202.96z"/>
			</g>
			<g>
				<path class="st5" d="M737.04,256.78c0,0,14.89,7.5,14.62,6.1c-0.27-1.4,2.07-11.15,2.07-11.15l-12.43-5.18L737.04,256.78z"/>
			</g>
			<g>
				<path class="st5" d="M748.64,241.31c0,0,11.48,4.51,10.97,2.58c-0.51-1.93,4.18-15.24,4.18-15.24l-10.14-6.55L748.64,241.31z"/>
			</g>
			<g>
				<path class="st5" d="M757,214.03c0,0,10.24,4.25,10.23,4.27c-0.01,0.02,5.17-12.41,5.17-12.41l-9.47-6.09L757,214.03z"/>
			</g>
			<g>
				<path class="st2" d="M756.29,268.24l7.67,3.2l17.83-37.61c0,0-8.16-5.12-9.5-3.96C770.94,231.02,756.29,268.24,756.29,268.24z"
					/>
			</g>
			<g>
				<path class="st5" d="M775.32,221.67l9.83,4.1c0,0,5.36-9.76,4.41-10.58c-0.94-0.82-8.91-6.29-8.91-6.29L775.32,221.67z"/>
			</g>
			<g>
				<path class="st1" d="M689.01,236.76c0.73,0.73,12.29,7.27,12.29,7.27l35.09-63.88l-10.14-10.66L689.01,236.76z"/>
			</g>
		</g>
		<g>
			<path class="st3" d="M348.27,473.74l-16.58,44l255.58,30.63l12.93-45.57L348.27,473.74z M365.44,498.43c0,0-7.83,6.12-11.46,6.28
				l-1.54-12.57l13-2.26V498.43z"/>
		</g>
		<g>
			
				<rect x="386.5" y="484.96" transform="matrix(0.2517 -0.9678 0.9678 0.2517 -177.6292 744.1784)" class="st11" width="11.88" height="4"/>
		</g>
		<g>
			
				<rect x="409.8" y="487.61" transform="matrix(0.2886 -0.9575 0.9575 0.2886 -171.5924 748.297)" class="st11" width="15.87" height="4"/>
		</g>
		<g>
			
				<rect x="433.45" y="488.9" transform="matrix(0.3361 -0.9418 0.9418 0.3361 -170.1432 740.4266)" class="st11" width="13.39" height="4"/>
		</g>
		<g>
			
				<rect x="457" y="488.9" transform="matrix(0.3357 -0.942 0.942 0.3357 -154.3857 762.8912)" class="st11" width="13.39" height="4"/>
		</g>
		<g>
			
				<rect x="472.84" y="492.11" transform="matrix(0.3967 -0.9179 0.9179 0.3967 -164.9532 737.2254)" class="st11" width="11.12" height="4"/>
		</g>
		<g>
			
				<rect x="493.72" y="493.06" transform="matrix(0.3107 -0.9505 0.9505 0.3107 -127.2317 814.6649)" class="st11" width="8.74" height="4"/>
		</g>
		<g>
			
				<rect x="510.97" y="495.52" transform="matrix(0.1848 -0.9828 0.9828 0.1848 -66.9138 914.374)" class="st11" width="13.47" height="4"/>
		</g>
		<g>
			
				<rect x="531.95" y="498.21" transform="matrix(0.3856 -0.9226 0.9226 0.3856 -131.7136 802.6096)" class="st11" width="9.76" height="4"/>
		</g>
		<g>
			
				<rect x="551.05" y="500.96" transform="matrix(0.5934 -0.8049 0.8049 0.5934 -178.3908 652.7654)" class="st11" width="11.8" height="4"/>
		</g>
		<g>
			
				<rect x="575.94" y="499.46" transform="matrix(0.0767 -0.9971 0.9971 0.0767 34.7985 1040.5026)" class="st11" width="6.51" height="4"/>
		</g>
	</g>
</g>
</svg>
